<?xml version="1.0" encoding="utf-8"?>
<!-- Generator: Adobe Illustrator 15.1.0, SVG Export Plug-In . SVG Version: 6.00 Build 0)  -->
<!DOCTYPE svg PUBLIC "-//W3C//DTD SVG 1.1//EN" "http://www.w3.org/Graphics/SVG/1.1/DTD/svg11.dtd">
<svg version="1.1" id="Layer_1" xmlns="http://www.w3.org/2000/svg" xmlns:xlink="http://www.w3.org/1999/xlink" x="0px" y="0px"
	 width="73.439px" height="100px" viewBox="0 0 73.439 100" enable-background="new 0 0 73.439 100" xml:space="preserve">
<path d="M61.637,32.473h-9.68V21.569c0.784-1.788,0.999-3.492,0.999-4.812c0-5.516-4.861-10.051-11.748-11.014
	c-0.395-0.12-1.437-0.905-2.196-1.48C36.63,2.464,33.368,0,29.06,0c-4.615,0-8.043,2.603-10.798,4.693
	c-1.625,1.233-3.304,2.509-4.398,2.509c-0.639,0-1.471-0.155-2.35-0.319c-1.084-0.201-2.205-0.41-3.353-0.41
	c-1.23,0-2.277,0.242-3.2,0.741C0,9.9,0,14.881,0,16.756c0,1.964,0.336,3.713,1,5.264v7.038V40.05C1,56.978,1,87.5,1,87.51
	C1,94.407,12.407,100,26.478,100c14.072,0,25.479-5.594,25.479-12.49c0-0.003,0-2.763,0-7.077h9.68c2.499,0,7.088-1.19,9.746-9.163
	c1.325-3.98,2.057-9.242,2.057-14.818C73.439,44.86,70.338,32.473,61.637,32.473z M4.996,35.669v-8.818
	c0.869,0.618,1.848,1.176,2.949,1.668c0.815,0.364,3.58,2.52,2.246,6.382l-0.038,0.097c-0.392,0.999-0.693,2.041-0.946,3.101
	C7.597,37.382,6.181,36.565,4.996,35.669z M20.487,50.051c-0.477,0.123-0.962,0.185-1.444,0.185c-0.859,0-2.082-0.2-3.021-1.157
	c-1.052-1.074-1.583-2.937-1.535-5.389c0.025-1.27,0.172-2.494,0.418-3.673c0.205-0.978,0.474-1.926,0.829-2.829
	c0.051-0.132,0.088-0.229,0.109-0.293c2.356-6.817-1.77-12.203-5.452-13.848c-3.678-1.645-4.397-3.553-4.397-6.291
	c0-2.456,0.459-3.533,1.785-4.254c0.001,0,0.105-0.034,0.382-0.034c0.594,0,1.4,0.15,2.255,0.309c1.057,0.196,2.255,0.42,3.447,0.42
	c3.113,0,5.608-1.895,8.023-3.729c2.353-1.787,4.575-3.474,7.173-3.474c2.299,0,4.445,1.621,6.339,3.051
	c1.614,1.219,3.138,2.37,4.902,2.618c3.859,0.542,6.659,2.685,6.659,5.092c0,3.521-2.782,6.107-8.272,7.689
	c-2.099,0.606-2.755,2.7-3.39,4.726c-0.198,0.633-0.521,1.664-0.831,2.329c-0.848-0.417-2.061-1.092-2.883-1.549
	c-3.045-1.695-4.215-2.296-5.377-2.382l-0.119-0.009l-0.168,0.003l-0.061,0.001c-0.742,0.009-1.413,0.294-1.932,0.749l-0.254,0.289
	c-0.391,0.445-0.615,0.889-0.723,1.42c-0.179,0.889-0.034,2.02,0.195,3.806c0.22,1.709,0.588,4.591,0.619,7.463
	C23.807,45.336,23.172,49.362,20.487,50.051z M46.649,36.559c-4.03,2.521-10.028,4.271-16.895,4.697
	c-0.01-2.022-0.171-3.977-0.355-5.662c2.889,1.594,4.194,2.208,5.447,2.208c4.031,0,5.373-4.281,6.173-6.838
	c0.1-0.318,0.229-0.73,0.347-1.068c2.826-0.918,4.959-2.081,6.594-3.353v9.114C47.549,35.966,47.113,36.268,46.649,36.559z
	 M61.338,71.441h-9.381c0-9.457,0-21.236,0-29.976h9.382c1.126,1.048,3.107,6.315,3.107,14.984
	C64.446,65.123,62.465,70.392,61.338,71.441z"/>
</svg>
