<svg xmlns="http://www.w3.org/2000/svg" xmlns:xlink="http://www.w3.org/1999/xlink" version="1.1" id="Calque_1" x="0px" y="0px" width="100px" height="100px" viewBox="0 0 100 100" enable-background="new 0 0 100 100" xml:space="preserve">
<g>
	<path d="M15.05,62.807h70.33c0.541,0,0.979-0.438,0.979-0.979V20.629c0-1.927-1.566-3.494-3.492-3.494l-65.304,0   c-1.926,0-3.493,1.567-3.493,3.494v41.198C14.07,62.368,14.509,62.807,15.05,62.807z M16.595,19.855h67.24v40.591h-67.24V19.855z"/>
	<path d="M97.074,78.246c-0.001-0.025-0.002-0.051-0.004-0.076c-0.024-0.321-0.134-0.641-0.322-0.949   c-0.029-0.049-0.062-0.095-0.101-0.137L86.078,65.071c-0.123-0.14-0.277-0.231-0.441-0.284c-0.053-0.111-0.163-0.189-0.294-0.189   H73.326c-0.123,0-0.235,0.07-0.291,0.181s-0.044,0.242,0.029,0.341l0.329,0.441H26.576l0.329-0.441   c0.073-0.099,0.085-0.23,0.03-0.341s-0.168-0.181-0.292-0.181H14.993c-0.131,0-0.242,0.078-0.294,0.19   c-0.165,0.052-0.319,0.144-0.441,0.283L3.688,77.084c-0.038,0.042-0.071,0.088-0.101,0.137c-0.243,0.398-0.354,0.822-0.325,1.232   L3.259,80.91c0.037,1.311,2.321,3.049,4.005,3.049h85.807c1.208,0,2.51-0.811,3.265-1.613c0.508-0.539,0.757-1.064,0.74-1.562   L97.074,78.246z M15.729,66.365c0.279-0.317,0.313-0.764,0.122-1.114h10.142l-0.328,0.44c-0.074,0.1-0.085,0.231-0.03,0.342   c0.056,0.11,0.168,0.18,0.292,0.18h48.117c0.124,0,0.236-0.069,0.293-0.18c0.055-0.11,0.043-0.242-0.031-0.342l-0.328-0.44h10.509   c-0.191,0.351-0.157,0.797,0.122,1.114l10.268,11.668c-0.057,0.064-0.088,0.15-0.08,0.241c0.014,0.149-0.034,0.28-0.146,0.401   c-0.267,0.29-0.856,0.464-1.578,0.464l-36.546,0.001h-0.001c-0.086,0-0.169,0.035-0.23,0.096c-0.062,0.062-0.096,0.145-0.096,0.23   c0,0.594-0.638,0.64-0.833,0.64H45.05c-0.195,0-0.833-0.046-0.833-0.64c0-0.086-0.034-0.169-0.096-0.23   c-0.061-0.061-0.144-0.096-0.23-0.096c0,0,0,0,0,0L7.264,79.14c-0.964,0-1.672-0.314-1.722-0.764   c-0.012-0.108-0.079-0.194-0.167-0.244L15.729,66.365z M93.071,82H7.264c-0.686,0-1.805-0.833-2.046-1.24l0.003-1.641   c0.396,0.42,1.116,0.674,2.044,0.674l36.338,0.001c0.146,0.589,0.69,0.966,1.447,0.966h10.315c0.757,0,1.302-0.377,1.447-0.966   l36.259-0.001c0.917,0,1.642-0.236,2.044-0.662l0.002,1.613C94.906,81.149,93.787,82,93.071,82z"/>
	<polygon points="75.252,68.756 24.647,68.756 20.81,73.849 79.164,73.85  "/>
</g>
</svg>