<svg xmlns="http://www.w3.org/2000/svg" xmlns:xlink="http://www.w3.org/1999/xlink" version="1.1" id="Your_Icon" x="0px" y="0px" width="100px" height="100px" viewBox="0 0 100 100" enable-background="new 0 0 100 100" xml:space="preserve">
<g>
	<circle cx="23" cy="23" r="9"/>
	<path d="M23,41c-4.971,0-9,4.029-9,9v36h18V50C32,45.029,27.971,41,23,41z"/>
	<circle cx="50" cy="23" r="9"/>
	<path d="M50,41c-4.971,0-9,4.029-9,9v36h18V50C59,45.029,54.971,41,50,41z"/>
	<circle cx="77" cy="23" r="9"/>
	<path d="M77,41c-4.971,0-9,4.029-9,9v36h18V50C86,45.029,81.971,41,77,41z"/>
</g>
</svg>